<?xml version="1.0" encoding="UTF-8"?>
<svg version="1.1" xmlns="http://www.w3.org/2000/svg" width="1024" height="768">
<path d="M0 0 C337.92 0 675.84 0 1024 0 C1024 253.44 1024 506.88 1024 768 C686.08 768 348.16 768 0 768 C0 514.56 0 261.12 0 0 Z " fill="#FEFEFE" transform="translate(0,0)"/>
<path d="M0 0 C2.77528273 0.005387 5.55040559 0.00001205 8.32568359 -0.00634766 C10.11344436 -0.00568723 11.90120503 -0.0044068 13.68896484 -0.00244141 C14.50685486 -0.00446564 15.32474487 -0.00648987 16.16741943 -0.00857544 C17.33969086 -0.0038472 17.33969086 -0.0038472 18.53564453 0.00097656 C19.5472464 0.00216995 19.5472464 0.00216995 20.57928467 0.00338745 C24.07403667 0.18542675 27.54462339 0.69631279 31.01708984 1.13037109 C31.01708984 29.51037109 31.01708984 57.89037109 31.01708984 87.13037109 C38.44208984 85.15037109 38.44208984 85.15037109 46.01708984 83.13037109 C50.81844122 82.3181124 55.57004137 81.57287412 60.39208984 80.94287109 C61.58447266 80.77851563 62.77685547 80.61416016 64.00537109 80.44482422 C67.3409426 79.98963849 70.6763507 79.54595729 74.01708984 79.13037109 C74.70966888 79.04187393 75.40224792 78.95337677 76.11581421 78.86219788 C81.34769435 78.22934847 86.49154551 77.97024958 91.75927734 77.96240234 C92.56712677 77.95907394 93.3749762 77.95574554 94.20730591 77.95231628 C95.90984536 77.94728719 97.61239453 77.9449067 99.31494141 77.94506836 C101.85125135 77.94290591 104.38710792 77.92477358 106.92333984 77.90576172 C122.17099221 77.85193874 137.31101769 78.88100215 152.20458984 82.31787109 C153.15325928 82.53217773 154.10192871 82.74648437 155.0793457 82.96728516 C210.79816669 95.89050551 261.53219589 124.57734255 297.01708984 170.13037109 C297.66677734 170.91283203 298.31646484 171.69529297 298.98583984 172.50146484 C308.81588882 184.37944069 316.84403758 197.51378124 324.01708984 211.13037109 C324.40864258 211.86336426 324.80019531 212.59635742 325.20361328 213.3515625 C331.34993268 225.00777741 335.92596335 237.02996843 340.07958984 249.50537109 C340.32151062 250.22900848 340.5634314 250.95264587 340.81268311 251.69821167 C343.06233969 258.47132682 345.16429187 265.00834016 346.01708984 272.13037109 C343.63606834 269.74934959 343.06675287 267.47500062 342.06518555 264.31762695 C332.1143075 233.14997925 315.18110167 204.40565797 293.07177734 180.36865234 C291.13606382 178.25997582 289.25889008 176.11250781 287.39208984 173.94287109 C280.87915211 166.50801067 273.74272056 160.29119253 266.01708984 154.13037109 C264.94240721 153.25333504 263.86820049 152.37571555 262.79443359 151.49755859 C240.88800786 133.72929689 215.82118734 120.16146236 189.19628906 110.90039062 C187.27982955 110.22321011 185.38282096 109.49150408 183.48974609 108.75146484 C154.63416818 97.59397472 122.94813386 93.94837007 92.23974609 93.89013672 C89.183472 93.88050155 86.12789249 93.84942827 83.07177734 93.81787109 C65.61084651 93.72420148 49.19448757 96.00720787 32.01708984 99.13037109 C31.68708984 111.34037109 31.35708984 123.55037109 31.01708984 136.13037109 C25.35552734 136.22318359 25.35552734 136.22318359 19.57958984 136.31787109 C-19.15341831 137.53864001 -57.33288526 151.98994563 -85.60791016 178.87646484 C-87.67126106 180.834612 -89.78569286 182.63991255 -91.98291016 184.44287109 C-107.33757147 197.92501274 -118.70604333 216.64584174 -126.98291016 235.13037109 C-127.25828613 235.73913086 -127.53366211 236.34789062 -127.81738281 236.97509766 C-131.12521379 244.40425873 -133.63187622 251.91427797 -135.73291016 259.75537109 C-135.93166748 260.49440674 -136.1304248 261.23344238 -136.33520508 261.99487305 C-139.53942611 274.57964686 -140.42404876 286.95771304 -140.42041016 299.88037109 C-140.42147766 300.68996277 -140.42254517 301.49955444 -140.42364502 302.3336792 C-140.39637731 316.73280303 -138.83778466 330.21083409 -134.98291016 344.13037109 C-134.6300293 345.43143799 -134.6300293 345.43143799 -134.27001953 346.75878906 C-131.16077294 357.96449666 -127.03365034 368.66200239 -121.98291016 379.13037109 C-121.6815918 379.7589502 -121.38027344 380.3875293 -121.06982422 381.03515625 C-114.58896241 394.35006969 -106.12646903 406.11646354 -96.02197266 416.93505859 C-94.13591912 418.96563731 -92.37403844 421.05845065 -90.60791016 423.19287109 C-86.27482171 428.15351029 -81.16916587 432.10120829 -75.98291016 436.13037109 C-74.57332031 437.24605469 -74.57332031 437.24605469 -73.13525391 438.38427734 C-56.09336231 451.57282064 -36.89276294 461.73800749 -15.98291016 467.13037109 C-15.25861816 467.32115234 -14.53432617 467.51193359 -13.78808594 467.70849609 C1.32937466 471.55858716 16.4783305 471.93504209 32.01708984 472.13037109 C32.01708984 474.44037109 32.01708984 476.75037109 32.01708984 479.13037109 C44.57171741 473.88584756 56.99914755 468.52364625 69.01708984 462.13037109 C69.60506348 461.81777344 70.19303711 461.50517578 70.79882812 461.18310547 C84.83855444 453.6295685 97.96349189 444.56173208 110.01708984 434.13037109 C110.80986328 433.44845703 111.60263672 432.76654297 112.41943359 432.06396484 C127.71047684 418.60685547 140.72893537 404.14300477 151.75830078 387.01538086 C153.63333832 384.1136306 155.41308171 381.42557057 158.01708984 379.13037109 C150.69627282 404.58871795 129.84488385 427.358426 112.01708984 446.13037109 C110.83953125 447.37173828 110.83953125 447.37173828 109.63818359 448.63818359 C104.13893313 454.28499892 98.21863907 459.27659147 92.01708984 464.13037109 C91.0725293 464.87359619 91.0725293 464.87359619 90.10888672 465.63183594 C74.82008035 477.62413033 59.17880405 488.01010211 42.01708984 497.13037109 C41.3509668 497.48873047 40.68484375 497.84708984 39.99853516 498.21630859 C29.47178998 503.84750863 18.5882872 508.18429447 7.37792969 512.26367188 C5.38053698 512.99694427 3.39464188 513.76142074 1.41162109 514.53271484 C-40.48434519 530.50523305 -89.13603978 533.9153075 -132.98291016 525.13037109 C-133.76069824 524.97552246 -134.53848633 524.82067383 -135.33984375 524.66113281 C-139.9548984 523.70289084 -144.4755139 522.49918822 -148.98291016 521.13037109 C-150.15998535 520.77700684 -150.15998535 520.77700684 -151.36083984 520.41650391 C-164.71847755 516.34224549 -177.43024889 511.23981965 -189.98291016 505.13037109 C-190.71993164 504.77217285 -191.45695312 504.41397461 -192.21630859 504.04492188 C-213.53325863 493.54029043 -232.8399065 479.54162885 -249.98291016 463.13037109 C-250.54123535 462.60459473 -251.09956055 462.07881836 -251.67480469 461.53710938 C-270.55561228 443.69967323 -284.56399075 422.34002508 -293.98291016 398.13037109 C-294.42328613 397.01637939 -294.42328613 397.01637939 -294.87255859 395.87988281 C-301.77303171 378.17946964 -306.70440765 359.20779253 -306.98291016 340.13037109 C-307.00192383 339.27588379 -307.0209375 338.42139648 -307.04052734 337.54101562 C-307.28196479 325.88671126 -307.2117744 314.61300208 -304.98291016 303.13037109 C-304.65291016 303.13037109 -304.32291016 303.13037109 -303.98291016 303.13037109 C-303.9485083 304.0241748 -303.91410645 304.91797852 -303.87866211 305.83886719 C-302.82995164 331.24530104 -301.06486613 356.44210777 -290.98291016 380.13037109 C-290.67981934 380.84515625 -290.37672852 381.55994141 -290.06445312 382.29638672 C-285.92417324 391.88617581 -281.17817801 400.6833177 -274.98291016 409.13037109 C-274.22236328 410.17580078 -273.46181641 411.22123047 -272.67822266 412.29833984 C-236.87783255 460.59195141 -180.20449731 487.37343363 -121.98291016 497.13037109 C-120.89349121 497.32542236 -119.80407227 497.52047363 -118.68164062 497.72143555 C-107.58127955 499.48489165 -96.52710221 499.39986061 -85.31298828 499.33618164 C-81.98934219 499.31790646 -78.66597638 499.31567286 -75.34228516 499.31591797 C-59.42759928 499.29138821 -43.98682006 498.80196537 -28.29541016 495.88037109 C-27.09513184 495.66147217 -25.89485352 495.44257324 -24.65820312 495.21704102 C-12.25431025 492.90009368 0.05449403 490.17557541 12.01708984 486.13037109 C10.72351563 486.12420776 10.72351563 486.12420776 9.40380859 486.11791992 C-21.74955213 485.86091292 -50.97365459 481.97346727 -80.98291016 473.13037109 C-82.36712158 472.7247998 -82.36712158 472.7247998 -83.77929688 472.31103516 C-135.11006458 456.96346435 -181.29708484 426.5387521 -220.98291016 391.13037109 C-221.93810547 390.28732422 -222.89330078 389.44427734 -223.87744141 388.57568359 C-236.55434068 377.19306914 -249.57543182 365.28099066 -259.93603516 351.71240234 C-261.80389269 349.35619274 -263.75333022 347.14587692 -265.76806641 344.91552734 C-269.82848882 340.37457326 -273.53901268 335.64311258 -277.17041016 330.75537109 C-277.80897949 329.90048096 -278.44754883 329.04559082 -279.10546875 328.16479492 C-285.17181548 319.98460005 -290.95321552 311.61588568 -296.5949707 303.13818359 C-297.50174377 301.82643308 -298.45048765 300.54247898 -299.44311523 299.29443359 C-302.78415103 295.06596288 -303.59798896 292.31186912 -303.42041016 286.75537109 C-303.39938232 286.06040527 -303.37835449 285.36543945 -303.35668945 284.64941406 C-301.8100633 244.93633329 -289.5275054 204.84590671 -270.90673828 169.88964844 C-270.02004632 168.20109075 -269.18002263 166.48827494 -268.34228516 164.77490234 C-259.21262489 146.57726871 -246.94365103 128.79672118 -233.98291016 113.13037109 C-233.55977539 112.60862305 -233.13664062 112.086875 -232.70068359 111.54931641 C-221.65500443 97.96384984 -209.3405611 84.87061973 -195.50244141 74.10302734 C-193.79307927 72.76468955 -192.12383962 71.37379563 -190.49462891 69.93896484 C-175.0995498 56.415357 -157.13355268 45.54149646 -138.98291016 36.13037109 C-138.31388672 35.78071289 -137.64486328 35.43105469 -136.95556641 35.07080078 C-132.3388305 32.6701881 -127.68064753 30.36803403 -122.98291016 28.13037109 C-122.29825684 27.80327148 -121.61360352 27.47617188 -120.90820312 27.13916016 C-92.61327615 13.75862952 -61.18948798 4.35446867 -29.98291016 1.13037109 C-29.16467773 1.03755859 -28.34644531 0.94474609 -27.50341797 0.84912109 C-18.34699604 -0.06748935 -9.19192116 -0.02125867 0 0 Z " fill="#01022B" transform="translate(485.98291015625,77.86962890625)"/>
<path d="M0 0 C1.89407482 3.6044107 2.8210928 7.02362531 3.75 11 C14.25714662 54.3394781 31.99852953 95.10451733 60 130 C60.78246094 130.98871094 61.56492187 131.97742188 62.37109375 132.99609375 C75.02324596 148.49053913 89.79730135 164.86668506 107.09448242 175.25830078 C109.70132818 177.64103462 109.76657398 179.39292006 110.23828125 182.86328125 C110.41472168 184.04962158 110.59116211 185.23596191 110.77294922 186.45825195 C110.95100098 187.73015381 111.12905273 189.00205566 111.3125 190.3125 C114.26272588 209.17878638 119.64026573 226.81133969 128 244 C128.29986816 244.62422852 128.59973633 245.24845703 128.90869141 245.89160156 C135.39078244 259.2122815 143.852315 270.98167472 153.9609375 281.8046875 C155.84699104 283.83526621 157.60887171 285.92807956 159.375 288.0625 C163.70808845 293.02313919 168.81374428 296.97083719 174 301 C175.40958984 302.11568359 175.40958984 302.11568359 176.84765625 303.25390625 C193.88954785 316.44244955 213.09014722 326.6076364 234 332 C234.72429199 332.19078125 235.44858398 332.3815625 236.19482422 332.578125 C251.31228482 336.42821606 266.46124066 336.80467099 282 337 C282 339.31 282 341.62 282 344 C294.55462757 338.75547647 306.98205771 333.39327516 319 327 C319.58797363 326.68740234 320.17594727 326.37480469 320.78173828 326.05273438 C334.8214646 318.49919741 347.94640205 309.43136098 360 299 C360.79277344 298.31808594 361.58554687 297.63617188 362.40234375 296.93359375 C377.693387 283.47648438 390.71184552 269.01263368 401.74121094 251.88500977 C403.61624848 248.98325951 405.39599186 246.29519948 408 244 C400.67918297 269.45834686 379.82779401 292.22805491 362 311 C360.82244141 312.24136719 360.82244141 312.24136719 359.62109375 313.5078125 C354.12184329 319.15462783 348.20154922 324.14622037 342 329 C341.05543945 329.7432251 341.05543945 329.7432251 340.09179688 330.50146484 C324.80299051 342.49375924 309.16171421 352.87973101 292 362 C291.33387695 362.35835937 290.66775391 362.71671875 289.98144531 363.0859375 C279.45470014 368.71713753 268.57119735 373.05392337 257.36083984 377.13330078 C255.36344714 377.86657318 253.37755203 378.63104964 251.39453125 379.40234375 C209.49856497 395.37486195 160.84687037 398.78493641 117 390 C116.22221191 389.84515137 115.44442383 389.69030273 114.64306641 389.53076172 C110.02801175 388.57251974 105.50739625 387.36881713 101 386 C100.2152832 385.76442383 99.43056641 385.52884766 98.62207031 385.28613281 C85.2644326 381.21187439 72.55266127 376.10944856 60 370 C59.26297852 369.64180176 58.52595703 369.28360352 57.76660156 368.91455078 C36.44965153 358.40991934 17.14300366 344.41125775 0 328 C-0.5583252 327.47422363 -1.11665039 326.94844727 -1.69189453 326.40673828 C-20.57270212 308.56930214 -34.5810806 287.20965398 -44 263 C-44.44037598 261.8860083 -44.44037598 261.8860083 -44.88964844 260.74951172 C-51.79012156 243.04909855 -56.7214975 224.07742143 -57 205 C-57.01901367 204.1455127 -57.03802734 203.29102539 -57.05761719 202.41064453 C-57.29905464 190.75634016 -57.22886425 179.48263099 -55 168 C-54.67 168 -54.34 168 -54 168 C-53.96559814 168.89380371 -53.93119629 169.78760742 -53.89575195 170.70849609 C-52.84704148 196.11492995 -51.08195597 221.31173668 -41 245 C-40.69690918 245.71478516 -40.39381836 246.42957031 -40.08154297 247.16601562 C-35.94126309 256.75580472 -31.19526785 265.5529466 -25 274 C-24.23945313 275.04542969 -23.47890625 276.09085937 -22.6953125 277.16796875 C13.10507761 325.46158031 69.77841285 352.24306253 128 362 C129.08941895 362.19505127 130.17883789 362.39010254 131.30126953 362.59106445 C142.40163061 364.35452055 153.45580794 364.26948951 164.66992188 364.20581055 C167.99356796 364.18753537 171.31693378 364.18530177 174.640625 364.18554688 C190.55531087 364.16101711 205.99609009 363.67159428 221.6875 360.75 C222.88777832 360.53110107 224.08805664 360.31220215 225.32470703 360.08666992 C237.7285999 357.76972259 250.03740419 355.04520432 262 351 C260.70642578 350.99383667 260.70642578 350.99383667 259.38671875 350.98754883 C228.23335803 350.73054183 199.00925557 346.84309617 169 338 C167.61578857 337.59442871 167.61578857 337.59442871 166.20361328 337.18066406 C114.87284558 321.83309326 68.68582532 291.408381 29 256 C28.04480469 255.15695312 27.08960938 254.31390625 26.10546875 253.4453125 C13.42856948 242.06269805 0.40747833 230.15061956 -9.953125 216.58203125 C-11.82098254 214.22582165 -13.77042007 212.01550583 -15.78515625 209.78515625 C-19.84557867 205.24420216 -23.55610253 200.51274149 -27.1875 195.625 C-28.145354 194.34266479 -28.145354 194.34266479 -29.12255859 193.03442383 C-35.18890533 184.85422896 -40.97030536 176.48551459 -46.61206055 168.0078125 C-47.51883361 166.69606198 -48.46757749 165.41210789 -49.46020508 164.1640625 C-52.80124087 159.93559178 -53.6150788 157.18149803 -53.4375 151.625 C-53.40595825 150.58255127 -53.40595825 150.58255127 -53.3737793 149.51904297 C-51.8278303 109.82334967 -39.5542538 69.7450535 -20.95019531 34.79882812 C-19.99278951 32.98634972 -19.06822953 31.15993892 -18.1484375 29.328125 C-12.90157679 19.01781274 -6.55825897 9.51703262 0 0 Z " fill="#01518D" transform="translate(236,213)"/>
<path d="M0 0 C31.02 0 62.04 0 94 0 C94 28.82881434 94 28.82881434 92.25 37.9375 C92.06953125 38.96343262 91.8890625 39.98936523 91.703125 41.04638672 C89.15934752 55.19835711 85.92031205 69.16711186 82 83 C81.69557983 84.08945923 81.69557983 84.08945923 81.38500977 85.20092773 C69.0364962 128.04685526 46.13611352 168.22681969 17.50878906 202.19873047 C16.11867746 203.85831678 14.75546431 205.53600628 13.3984375 207.22265625 C6.58387176 215.56772524 -0.97073838 223.18247065 -8.5625 230.8125 C-9.09339233 231.34865936 -9.62428467 231.88481873 -10.17126465 232.43722534 C-17.10855982 239.42765986 -24.23378265 245.91990389 -32 252 C-32.72968994 252.57838623 -33.45937988 253.15677246 -34.21118164 253.75268555 C-63.34498379 276.70312815 -105.64083474 306.65147968 -144 309 C-140.99079103 304.8844642 -137.54706743 301.90710975 -133.5 298.875 C-126.63565149 293.60094156 -120.25311588 287.98124128 -114 282 C-113.05125 281.0925 -112.1025 280.185 -111.125 279.25 C-105.78304583 274.02675592 -100.8751116 268.6288948 -96.2265625 262.78125 C-93.98530898 259.98164911 -91.65437945 257.27816477 -89.3125 254.5625 C-78.56624554 241.67369013 -69.31066884 227.55914657 -61 213 C-60.44602539 212.042146 -60.44602539 212.042146 -59.88085938 211.06494141 C-54.56612062 201.87279742 -49.60457335 192.54356125 -44.97070312 182.99023438 C-44.03126607 181.06410488 -43.07173382 179.14913033 -42.109375 177.234375 C-14.65467953 121.73531533 -3.40365126 61.26572262 0 0 Z " fill="#012A55" transform="translate(680,380)"/>
<path d="M0 0 C54.78 0 109.56 0 166 0 C166 35.7826087 166 35.7826087 164 47 C163.77860947 48.3526462 163.55861537 49.70552151 163.33984375 51.05859375 C162.62409633 55.38506699 161.82254771 59.69272089 161 64 C160.85836426 64.75684082 160.71672852 65.51368164 160.57080078 66.29345703 C158.39478811 77.79386433 155.40474983 88.83408824 151.6875 99.93017578 C151.08383426 101.7476041 150.50835625 103.57434452 149.9375 105.40234375 C147.80125895 112.17600807 145.0796535 118.51704528 141.99707031 124.91162109 C140.83028143 127.35547813 139.69296323 129.81226654 138.5546875 132.26953125 C127.30081353 156.40513376 113.84859862 178.37941614 97 199 C96.56703613 199.53737793 96.13407227 200.07475586 95.68798828 200.62841797 C89.06814075 208.80878159 81.8518146 216.34915758 74.4375 223.8125 C73.57527832 224.68398682 72.71305664 225.55547363 71.82470703 226.45336914 C65.85752695 232.39173591 59.57788722 237.75342037 53 243 C51.77975581 244.01226364 50.56190227 245.02742408 49.34765625 246.046875 C14.47870476 274.93276798 -29.78376423 295.65413301 -74 305 C-74.84046875 305.18256348 -75.6809375 305.36512695 -76.546875 305.55322266 C-99.38995023 310.45610576 -121.71940769 311.31727403 -145 311 C-144.67 310.34 -144.34 309.68 -144 309 C-142.11427876 308.75976719 -140.22733259 308.5268065 -138.33642578 308.33154297 C-134.21843237 307.74719239 -130.365423 306.39675161 -126.4375 305.0625 C-125.52983887 304.7545752 -124.62217773 304.44665039 -123.68701172 304.12939453 C-104.35850475 297.40887894 -86.554727 288.46012234 -69 278 C-68.24605957 277.5565625 -67.49211914 277.113125 -66.71533203 276.65625 C-51.56918143 267.71593514 -37.81182721 256.89145966 -24.56225586 245.35742188 C-23.45931484 244.39909213 -22.35012789 243.44792811 -21.23657227 242.50195312 C-15.75125796 237.7968745 -10.6000683 232.78624655 -5.49145508 227.67675781 C-4.07331716 226.26080053 -2.64703335 224.85301711 -1.22070312 223.4453125 C4.96323344 217.27426809 10.55717475 210.82673016 16 204 C17.04808398 202.7520388 18.10086138 201.5079906 19.16015625 200.26953125 C48.21844794 165.87953334 70.88592716 122.91275228 82.37475586 79.34472656 C82.86983519 77.48813074 83.38549929 75.63702537 83.90844727 73.78808594 C86.38272426 64.88092448 88.28811399 55.97810585 89.81030273 46.86083984 C90.18194887 44.65790438 90.57767854 42.4602185 90.97460938 40.26171875 C93.22551908 26.94238224 93.44691142 14.8272146 94 1 C62.98 1 31.96 1 0 1 C0 0.67 0 0.34 0 0 Z " fill="#10B6F1" transform="translate(680,379)"/>
<path d="M0 0 C4.17737346 3.46062494 8.11226019 7.04353939 11.87988281 10.94580078 C43.8866446 44.07642159 89.90491581 66.76157896 135 75 C135.72493652 75.13825195 136.44987305 75.27650391 137.19677734 75.41894531 C175.97870582 82.56999393 219.79827557 78.79667361 256.86035156 65.75097656 C259.44960461 64.8421972 262.04895968 63.96503364 264.6484375 63.0859375 C266.68276018 62.39199695 268.7166158 61.6966857 270.75 61 C271.68505371 60.6798291 272.62010742 60.3596582 273.58349609 60.02978516 C280.53797699 57.60642075 287.17081841 54.84549233 294 52 C294 87.97 294 123.94 294 161 C287.65684932 161.63431507 281.60329854 162.15831144 275.2734375 162.16796875 C274.48208405 162.17129715 273.69073059 162.17462555 272.87539673 162.17805481 C271.21332369 162.18307417 269.55124076 162.1854647 267.88916016 162.18530273 C265.40118982 162.18747711 262.91367286 162.20565354 260.42578125 162.22460938 C250.10655491 162.26092912 240.20777407 161.53506331 230 160 C228.3398712 159.77453738 226.67971964 159.54924216 225.01953125 159.32421875 C195.58529019 154.98994589 166.67594766 146.2137152 140 133 C139.1136084 132.57025879 138.2272168 132.14051758 137.31396484 131.69775391 C112.18431962 119.45039066 87.92902303 103.71317948 67.58203125 84.43359375 C65.49532977 82.46685393 63.37994134 80.59503093 61.1875 78.75 C51.80684787 70.61090477 42.95976562 61.52650682 35 52 C33.74316406 50.55947266 33.74316406 50.55947266 32.4609375 49.08984375 C26.64555846 42.40012451 21.31127559 35.54764275 16.41650391 28.14257812 C15.33236239 26.50272533 14.24240941 24.86671326 13.14990234 23.23242188 C11.07020906 20.11909073 9.00228257 16.99823703 6.9375 13.875 C6.25719727 12.85422363 5.57689453 11.83344727 4.87597656 10.78173828 C4.24530273 9.81993652 3.61462891 8.85813477 2.96484375 7.8671875 C2.3937085 7.00206543 1.82257324 6.13694336 1.23413086 5.24560547 C0 3 0 3 0 0 Z " fill="#95E6F9" transform="translate(223,528)"/>
<path d="M0 0 C0.33 0 0.66 0 1 0 C0.99097656 0.67804688 0.98195312 1.35609375 0.97265625 2.0546875 C1.23885673 10.41106765 3.98731912 14.54750652 9 21 C10.27500204 22.83346542 11.51991274 24.68542288 12.76464844 26.53955078 C23.59196513 42.64061792 35.57127523 58.09616505 48.6640625 72.41796875 C49.9476006 73.83672909 51.22468664 75.26179872 52.47070312 76.71362305 C57.47927264 82.54395698 62.81838706 88.00196815 68.25 93.4375 C69.12785156 94.32759766 70.00570312 95.21769531 70.91015625 96.13476562 C76.19762332 101.433845 81.6491312 106.32787197 87.51391602 110.98144531 C90.00208732 113.00169478 92.34871267 115.12211554 94.6875 117.3125 C100.78146919 122.85598386 107.37645309 127.69412662 114.02001953 132.55078125 C115.82083058 133.86885948 117.61229166 135.19862628 119.40234375 136.53125 C171.83980841 175.18787411 235.48123274 200.35976258 300.9375 201.625 C302.60353308 201.66331081 304.26954914 201.70236935 305.93554688 201.7421875 C309.95688803 201.83670997 313.97832058 201.92123771 318 202 C315.83944858 204.16055142 314.94636061 204.45396237 312.0703125 205.18359375 C311.28172852 205.38734619 310.49314453 205.59109863 309.68066406 205.80102539 C308.83729492 206.01106201 307.99392578 206.22109863 307.125 206.4375 C306.25584961 206.65849365 305.38669922 206.8794873 304.49121094 207.10717773 C302.76140203 207.54638954 301.03094429 207.98305495 299.29980469 208.41699219 C297.48916793 208.87599437 295.68469608 209.35931861 293.8828125 209.8515625 C287.22329082 211.64983096 280.47188638 212.9033053 273.6875 214.125 C272.76291992 214.29588135 271.83833984 214.4667627 270.88574219 214.64282227 C239.30996324 220.14582577 202.24621071 220.05960959 171 213 C168.92713832 212.5713486 166.85421999 212.14297106 164.78125 211.71484375 C124.71342378 203.07887166 86.49041011 184.9663929 56.26171875 157.07421875 C54.21675333 155.19878414 52.12380525 153.40967467 50 151.625 C26.04752044 130.54108087 10.21459463 101.04385135 4 70 C3.75717285 68.85499023 3.5143457 67.70998047 3.26416016 66.53027344 C1.33738604 57.16887297 0.33527747 47.94209891 -0.13574219 38.40087891 C-0.24964836 36.13200425 -0.38541871 33.86517773 -0.5234375 31.59765625 C-1.1177315 20.99370429 -0.78631894 10.58711103 0 0 Z " fill="#97E6F9" transform="translate(182,361)"/>
<path d="M0 0 C0.33 0 0.66 0 1 0 C1.03440186 0.89380371 1.06880371 1.78760742 1.10424805 2.70849609 C2.15295852 28.11492995 3.91804403 53.31173668 14 77 C14.30309082 77.71478516 14.60618164 78.42957031 14.91845703 79.16601562 C19.05873691 88.75580472 23.80473215 97.5529466 30 106 C31.14082031 107.56814453 31.14082031 107.56814453 32.3046875 109.16796875 C68.10507761 157.46158031 124.77841285 184.24306253 183 194 C184.08941895 194.19505127 185.17883789 194.39010254 186.30126953 194.59106445 C197.40163061 196.35452055 208.45580794 196.26948951 219.66992188 196.20581055 C222.99356796 196.18753537 226.31693378 196.18530177 229.640625 196.18554688 C245.55447501 196.1610184 260.99726274 195.67482544 276.6875 192.75 C277.90300537 192.52602539 279.11851074 192.30205078 280.37084961 192.07128906 C295.64482184 189.19652045 310.29772699 185.36114397 325.0625 180.5 C326.74001343 179.94844238 326.74001343 179.94844238 328.45141602 179.38574219 C335.52155501 176.9986007 342.26072073 174.19654986 349 171 C350.19367188 170.46117187 351.38734375 169.92234375 352.6171875 169.3671875 C375.08462976 159.07634464 396.31116669 147.33746049 415 131 C415.78890625 130.32066406 416.5778125 129.64132812 417.390625 128.94140625 C432.69155541 115.49139484 445.71093615 101.01404585 456.74121094 83.88500977 C458.61624848 80.98325951 460.39599186 78.29519948 463 76 C455.67918297 101.45834686 434.82779401 124.22805491 417 143 C415.82244141 144.24136719 415.82244141 144.24136719 414.62109375 145.5078125 C409.12184329 151.15462783 403.20154922 156.14622037 397 161 C396.05543945 161.7432251 396.05543945 161.7432251 395.09179688 162.50146484 C379.80299051 174.49375924 364.16171421 184.87973101 347 194 C346.33387695 194.35835937 345.66775391 194.71671875 344.98144531 195.0859375 C334.45470014 200.71713753 323.57119735 205.05392337 312.36083984 209.13330078 C310.36344714 209.86657318 308.37755203 210.63104964 306.39453125 211.40234375 C264.49856497 227.37486195 215.84687037 230.78493641 172 222 C171.22221191 221.84515137 170.44442383 221.69030273 169.64306641 221.53076172 C165.02801175 220.57251974 160.50739625 219.36881713 156 218 C155.2152832 217.76442383 154.43056641 217.52884766 153.62207031 217.28613281 C140.2644326 213.21187439 127.55266127 208.10944856 115 202 C114.26297852 201.64180176 113.52595703 201.28360352 112.76660156 200.91455078 C91.44965153 190.40991934 72.14300366 176.41125775 55 160 C54.4416748 159.47422363 53.88334961 158.94844727 53.30810547 158.40673828 C34.42729788 140.56930214 20.4189194 119.20965398 11 95 C10.70641602 94.25733887 10.41283203 93.51467773 10.11035156 92.74951172 C3.20987844 75.04909855 -1.7214975 56.07742143 -2 37 C-2.02852051 35.71826904 -2.02852051 35.71826904 -2.05761719 34.41064453 C-2.29905464 22.75634016 -2.22886425 11.48263099 0 0 Z " fill="#03052B" transform="translate(181,381)"/>
<path d="M0 0 C7.65025901 4.29305797 14.33000167 11.40511706 17.26171875 19.7421875 C19.39478021 30.87410202 19.90874906 45.04239214 13.88671875 55.00390625 C11.73150936 57.8744421 9.44913126 60.49187826 6.88671875 63.00390625 C9.74150201 64.90709509 11.30613183 65.46581615 14.57421875 66.12890625 C15.99734375 66.41765625 17.42046875 66.70640625 18.88671875 67.00390625 C18.55671875 69.97390625 18.22671875 72.94390625 17.88671875 76.00390625 C13.02773508 75.64398153 9.43105249 74.8932134 5.01171875 72.81640625 C-0.52467023 70.44122703 -4.49678967 71.29925179 -10.11328125 73.00390625 C-18.40607015 75.38972845 -27.2724915 74.47420587 -35.11328125 71.00390625 C-45.21578403 65.06125755 -50.37170889 56.94539673 -54.11328125 46.00390625 C-56.84636517 34.79654326 -55.01028994 23.73431465 -49.36328125 13.75390625 C-38.2314028 -3.51969825 -18.73111048 -8.82889681 0 0 Z " fill="#FBFCFC" transform="translate(455.11328125,345.99609375)"/>
<path d="M0 0 C6.77687548 4.01377174 11.14549084 10.0398982 13.48046875 17.4921875 C16.99646724 32.99366152 16.47244016 49.92524074 8.91796875 63.9921875 C4.14102189 69.72452374 -0.6856226 74.05960578 -8.3203125 74.98828125 C-15.65385935 75.13758699 -20.80016568 74.76188753 -26.26953125 69.6171875 C-36.43166769 58.94462412 -36.58125921 45.58556899 -36.26953125 31.6171875 C-36.25277344 30.78574219 -36.23601563 29.95429688 -36.21875 29.09765625 C-35.64150303 20.20805297 -32.16637114 10.37448558 -25.83984375 3.984375 C-18.5405449 -2.37073594 -9.13119708 -3.86193998 0 0 Z " fill="#095492" transform="translate(641.26953125,344.3828125)"/>
<path d="M0 0 C0 2.97 0 5.94 0 9 C-1.37671875 9.03867187 -1.37671875 9.03867187 -2.78125 9.078125 C-11.84660006 9.49711177 -17.79117377 10.46075976 -24.75 16.3125 C-29.2104758 21.64029054 -31.43254864 26.04872078 -32 33 C-31.113125 32.21625 -30.22625 31.4325 -29.3125 30.625 C-24.29783578 26.51786202 -20.07065326 25.52266107 -13.625 25.6953125 C-8.30442083 26.31287973 -3.94957993 28.0003238 -0.17578125 31.87109375 C5.80748464 39.53488953 6.93586775 46.36741004 6 56 C4.08015699 62.76893103 0.61400514 68.58681142 -5.5 72.25 C-12.40991398 75.70495699 -19.36077235 75.83322029 -27 75 C-34.2144569 72.56632321 -38.39676626 68.13540332 -41.8828125 61.48828125 C-47.11554732 49.83355369 -46.30390373 35.86834059 -42 24 C-37.69918455 13.74420931 -31.43062348 6.83859302 -21.375 2 C-14.27406496 -0.74312607 -7.50075503 -0.46111199 0 0 Z " fill="#0B5592" transform="translate(590,344)"/>
<path d="M0 0 C7.65025901 4.29305797 14.33000167 11.40511706 17.26171875 19.7421875 C19.39478021 30.87410202 19.90874906 45.04239214 13.88671875 55.00390625 C11.73150936 57.8744421 9.44913126 60.49187826 6.88671875 63.00390625 C9.74150201 64.90709509 11.30613183 65.46581615 14.57421875 66.12890625 C15.99734375 66.41765625 17.42046875 66.70640625 18.88671875 67.00390625 C18.55671875 69.97390625 18.22671875 72.94390625 17.88671875 76.00390625 C13.02773508 75.64398153 9.43105249 74.8932134 5.01171875 72.81640625 C-0.52467023 70.44122703 -4.49678967 71.29925179 -10.11328125 73.00390625 C-18.40607015 75.38972845 -27.2724915 74.47420587 -35.11328125 71.00390625 C-45.21578403 65.06125755 -50.37170889 56.94539673 -54.11328125 46.00390625 C-56.84636517 34.79654326 -55.01028994 23.73431465 -49.36328125 13.75390625 C-38.2314028 -3.51969825 -18.73111048 -8.82889681 0 0 Z M-37.42578125 13.31640625 C-37.98265625 14.20328125 -38.53953125 15.09015625 -39.11328125 16.00390625 C-39.48324219 16.54660156 -39.85320312 17.08929688 -40.234375 17.6484375 C-45.04354389 26.08528395 -44.46494406 38.00454727 -42.3828125 47.24609375 C-39.38408033 55.29983157 -34.65547452 60.46548664 -26.87890625 64.09765625 C-21.04307308 66.00996316 -14.97786114 65.66781031 -9.11328125 64.00390625 C-9.86339516 60.82666222 -9.86339516 60.82666222 -12.61328125 59.06640625 C-15.16886943 56.958046 -15.77033341 56.20475275 -16.11328125 53.00390625 C-13.11328125 51.00390625 -13.11328125 51.00390625 -11.23828125 51.06640625 C-8.22749626 52.39469375 -6.42528075 54.69190675 -4.11328125 57.00390625 C-2.0272747 57.68231939 -2.0272747 57.68231939 -0.11328125 58.00390625 C0.68661679 56.80100614 1.47619699 55.5912433 2.26171875 54.37890625 C2.70257813 53.70601563 3.1434375 53.033125 3.59765625 52.33984375 C8.52625705 43.40862169 8.22569333 31.61058322 6.234375 21.78515625 C3.76445138 14.91601246 -0.65592093 10.09509138 -6.8515625 6.34765625 C-10.60613267 4.80086327 -13.92037791 4.42758465 -17.92578125 4.44140625 C-18.62993164 4.44309814 -19.33408203 4.44479004 -20.05957031 4.4465332 C-27.96062585 4.71857553 -32.06453548 7.95516048 -37.42578125 13.31640625 Z " fill="#095492" transform="translate(455.11328125,345.99609375)"/>
<path d="M0 0 C4.94731736 2.27595887 7.42117136 6.13448001 9.4375 11.0625 C13.39298841 24.90670943 12.66860383 42.09702702 6 55 C2.646953 58.49096734 -0.43366837 60.85223287 -5.3125 61.3125 C-9.76445394 60.93521577 -11.02181519 60.30015074 -14 57 C-18.91605507 48.42587028 -19.18094176 39.79184077 -19.1875 30.125 C-19.19974609 29.18269531 -19.21199219 28.24039062 -19.22460938 27.26953125 C-19.24028577 19.71351092 -18.87864893 12.03000042 -14.5625 5.5625 C-14.15128906 4.92441406 -13.74007812 4.28632813 -13.31640625 3.62890625 C-9.68292998 -0.86711631 -5.31659923 -0.95539554 0 0 Z " fill="#F9FBFC" transform="translate(635,351)"/>
<path d="M0 0 C3.9420809 2.73257881 6.16167306 6.10890021 8.0625 10.4296875 C8.94295292 15.87621019 8.21125779 20.73885063 5.55078125 25.56640625 C2.74102646 29.08413075 -1.05717148 31.24078423 -4.9375 33.4296875 C-3.1121875 34.0484375 -3.1121875 34.0484375 -1.25 34.6796875 C3.67199406 36.54934956 6.88808702 38.68831652 9.875 43.1171875 C11.71388474 48.2467081 12.06981752 52.60360225 10.21875 57.796875 C6.91422137 64.42826015 2.19697586 68.64378964 -4.578125 71.5703125 C-9.01855038 72.70623527 -13.18503861 72.75923366 -17.75 72.7421875 C-18.60142578 72.75830078 -19.45285156 72.77441406 -20.33007812 72.79101562 C-26.37169333 72.79561701 -31.33613011 71.67380158 -36.9375 69.4296875 C-36.45171457 66.30678115 -35.9388988 63.43388391 -34.9375 60.4296875 C-33.761875 60.9246875 -32.58625 61.4196875 -31.375 61.9296875 C-23.96553218 64.39951011 -14.87057201 65.07191757 -7.59765625 62.03515625 C-4.34566555 60.07250107 -3.30024884 58.98797615 -1.9375 55.4296875 C-1.19033036 50.39044334 -1.01489764 46.74369692 -4 42.4921875 C-11.16434725 37.46190113 -17.31478327 36.84029306 -25.9375 36.4296875 C-25.9375 34.1196875 -25.9375 31.8096875 -25.9375 29.4296875 C-25.24785156 29.40390625 -24.55820312 29.378125 -23.84765625 29.3515625 C-17.4177053 28.96347218 -11.35274065 28.17870026 -5.9375 24.4296875 C-3.28117021 20.39851609 -3.21578847 16.10362885 -3.9375 11.4296875 C-5.81370613 8.92807932 -7.17641303 7.81023098 -9.9375 6.4296875 C-16.8892497 5.93039056 -22.87557102 5.60110078 -28.9375 9.4296875 C-29.9275 9.4296875 -30.9175 9.4296875 -31.9375 9.4296875 C-33.08553263 6.99855957 -33.9638052 5.11362262 -33.859375 2.3984375 C-32.9375 0.4296875 -32.9375 0.4296875 -30.41796875 -0.8359375 C-19.53895418 -4.08802727 -10.24528202 -5.8122273 0 0 Z " fill="#0B5693" transform="translate(521.9375,346.5703125)"/>
<path d="M0 0 C4.53941854 2.22844183 6.79868497 4.49645006 9 9 C9.3984375 12.33984375 9.3984375 12.33984375 9.375 15.9375 C9.38273438 17.12214844 9.39046875 18.30679687 9.3984375 19.52734375 C8.81372655 24.62350096 7.23928614 27.88161983 3.4375 31.3125 C-0.6605035 34.14957935 -4.06816742 34.67043534 -9 34 C-14.0581476 31.32777108 -16.85410768 28.53302512 -19.1875 23.375 C-20.42939647 18.21635312 -21.3051666 12.89078221 -19.0546875 7.90625 C-14.18418262 0.67707295 -8.53757947 -1.23138165 0 0 Z " fill="#F8FBFB" transform="translate(576,378)"/>
<path d="M0 0 C4.12611421 1.74213711 6.73295974 4.13763511 9 8 C9.71084748 12.34406794 9.52039821 15.86008011 7.6875 19.875 C3.84 24.72 3.84 24.72 0 26 C-8.85285576 26.57115198 -8.85285576 26.57115198 -13 23 C-16.39453687 18.22929953 -17.87159882 14.99224187 -17 9 C-12.77520643 1.15395479 -8.71769336 -1.14048677 0 0 Z " fill="#2F6B97" transform="translate(682,340)"/>
<path d="M0 0 C2.91533206 0.86672034 3.81140938 1.77099711 5.75 4.125 C7.46576876 8.07126814 7.34644339 10.70410192 7 15 C6.01 16.485 6.01 16.485 5 18 C2 17 2 17 0.75 14.5625 C0 12 0 12 1 10 C0.566875 10.495 0.13375 10.99 -0.3125 11.5 C-2 13 -2 13 -5 13 C-5.33 10.36 -5.66 7.72 -6 5 C-4.35 5 -2.7 5 -1 5 C-1 4.34 -1 3.68 -1 3 C-3.31 3.33 -5.62 3.66 -8 4 C-7.90460937 4.73605469 -7.80921875 5.47210938 -7.7109375 6.23046875 C-7.60007812 7.20628906 -7.48921875 8.18210937 -7.375 9.1875 C-7.25898437 10.15042969 -7.14296875 11.11335938 -7.0234375 12.10546875 C-6.99805058 15.24075323 -7.65640717 17.19486535 -9 20 C-11.59374579 18.40384874 -13.58768179 17.0887054 -14.6953125 14.1640625 C-15.4211278 10.13347113 -15.18489318 8.35657971 -13.25 4.625 C-9.22067733 -0.07587644 -5.93368657 -0.56454103 0 0 Z " fill="#ECF1F5" transform="translate(682,342)"/>
<path d="M0 0 C0.33 0.66 0.66 1.32 1 2 C0.32250977 3.78076172 0.32250977 3.78076172 -0.80859375 5.9296875 C-1.22254395 6.72012451 -1.63649414 7.51056152 -2.06298828 8.32495117 C-2.51657715 9.16646729 -2.97016602 10.0079834 -3.4375 10.875 C-3.89108887 11.72747314 -4.34467773 12.57994629 -4.81201172 13.45825195 C-8.48447063 20.26264861 -12.50187601 26.70513933 -17 33 C-17.33 32.34 -17.66 31.68 -18 31 C-19.98 31.99 -19.98 31.99 -22 33 C-21.44854765 28.92115418 -19.31663388 26.82254483 -16.625 23.8125 C-10.21661094 16.45148062 -5.15092813 8.26498733 0 0 Z " fill="#10132E" transform="translate(643,457)"/>
<path d="M0 0 C0.33 0 0.66 0 1 0 C1.33 10.89 1.66 21.78 2 33 C1.34 32.34 0.68 31.68 0 31 C-0.33 32.98 -0.66 34.96 -1 37 C-1.33 37 -1.66 37 -2 37 C-2.21003783 24.49790204 -2.39227481 12.3244872 0 0 Z " fill="#22233A" transform="translate(181,381)"/>
<path d="M0 0 C3.25677898 0.26406316 4.61989153 0.56746278 6.8125 3.0625 C8.4198805 7.03865177 8.34550845 9.71569519 8 14 C7.01 15.485 7.01 15.485 6 17 C5.01 16.67 4.02 16.34 3 16 C1.8125 13.4375 1.8125 13.4375 1 11 C1.33 10.67 1.66 10.34 2 10 C2.07179964 8.48071962 2.08392007 6.95832518 2.0625 5.4375 C2.04896484 4.19806641 2.04896484 4.19806641 2.03515625 2.93359375 C2.02355469 2.29550781 2.01195312 1.65742188 2 1 C1.34 0.67 0.68 0.34 0 0 Z " fill="#EFF3F5" transform="translate(681,343)"/>
<path d="M0 0 C4.12611421 1.74213711 6.73295974 4.13763511 9 8 C9.42771206 11.04678839 9.51337221 13.96155287 9 17 C8.34 17.66 7.68 18.32 7 19 C6.95101562 18.33613281 6.90203125 17.67226563 6.8515625 16.98828125 C6.44252236 10.21091648 6.44252236 10.21091648 4 4 C2.32171592 3.03375833 2.32171592 3.03375833 0 3 C-1.27875 2.896875 -2.5575 2.79375 -3.875 2.6875 C-8.32887999 2.7125218 -10.57431537 4.25945229 -14 7 C-13.65557106 4.50289018 -13.15296001 3.17845335 -11.5 1.25 C-7.70138091 -0.64930954 -4.16579888 -0.54498803 0 0 Z " fill="#1E5A8D" transform="translate(682,340)"/>
<path d="M0 0 C0.66 0.99 1.32 1.98 2 3 C-4.33333333 9.33333333 -10.66666667 15.66666667 -17 22 C-17.99 21.67 -18.98 21.34 -20 21 C-19.25109497 20.2589502 -19.25109497 20.2589502 -18.48706055 19.50292969 C-16.21789673 17.25460324 -13.95266905 15.00235079 -11.6875 12.75 C-10.90181641 11.97269531 -10.11613281 11.19539062 -9.30664062 10.39453125 C-8.54931641 9.64042969 -7.79199219 8.88632812 -7.01171875 8.109375 C-6.31522217 7.41811523 -5.61872559 6.72685547 -4.90112305 6.01464844 C-3.09620813 4.10195319 -1.53058332 2.13569765 0 0 Z " fill="#0D2F55" transform="translate(580,647)"/>
<path d="M0 0 C1.134375 0.020625 2.26875 0.04125 3.4375 0.0625 C3.4375 0.7225 3.4375 1.3825 3.4375 2.0625 C1.7875 2.0625 0.1375 2.0625 -1.5625 2.0625 C-1.5625 3.0525 -1.5625 4.0425 -1.5625 5.0625 C-0.2425 5.3925 1.0775 5.7225 2.4375 6.0625 C1.4475 6.0625 0.4575 6.0625 -0.5625 6.0625 C-0.5625 7.3825 -0.5625 8.7025 -0.5625 10.0625 C0.4275 10.0625 1.4175 10.0625 2.4375 10.0625 C2.7675 9.0725 3.0975 8.0825 3.4375 7.0625 C4.0975 7.0625 4.7575 7.0625 5.4375 7.0625 C5.1075 9.0425 4.7775 11.0225 4.4375 13.0625 C3.7775 13.0625 3.1175 13.0625 2.4375 13.0625 C2.4375 12.4025 2.4375 11.7425 2.4375 11.0625 C0.7875 11.7225 -0.8625 12.3825 -2.5625 13.0625 C-2.706875 12.010625 -2.85125 10.95875 -3 9.875 C-3.33046096 7.63520903 -3.70655121 5.39986442 -4.1875 3.1875 C-4.31125 2.48625 -4.435 1.785 -4.5625 1.0625 C-3.5625 0.0625 -3.5625 0.0625 0 0 Z " fill="#034D83" transform="translate(677.5625,344.9375)"/>
<path d="M0 0 C0.33 0 0.66 0 1 0 C1.07347656 1.13888672 1.07347656 1.13888672 1.1484375 2.30078125 C1.22320312 3.29464844 1.29796875 4.28851563 1.375 5.3125 C1.44460937 6.29863281 1.51421875 7.28476562 1.5859375 8.30078125 C1.83865472 11.21528433 1.83865472 11.21528433 4 14 C3.67854004 14.54366211 3.35708008 15.08732422 3.02587891 15.64746094 C1.80794247 18.44042512 1.6830009 20.59930528 1.5859375 23.640625 C1.54726562 24.71054687 1.50859375 25.78046875 1.46875 26.8828125 C1.4378125 27.99398438 1.406875 29.10515625 1.375 30.25 C1.33632812 31.37664062 1.29765625 32.50328125 1.2578125 33.6640625 C1.16362664 36.44254548 1.07800414 39.22102334 1 42 C0.67 42 0.34 42 0 42 C-0.79126827 27.90788886 -1.15522366 14.07595601 0 0 Z " fill="#91C0D4" transform="translate(182,361)"/>
<path d="M0 0 C4.88049925 3.9419417 9.0580583 8.11950075 13 13 C12.01 13.66 11.02 14.32 10 15 C6.18293034 11.4010486 2.57001108 7.61508373 0 3 C0 2.01 0 1.02 0 0 Z " fill="#8BD1DE" transform="translate(223,528)"/>
<path d="M0 0 C0.99 0.33 1.98 0.66 3 1 C3 3.31 3 5.62 3 8 C2.01 8 1.02 8 0 8 C-0.33 8.66 -0.66 9.32 -1 10 C-1.99 10 -2.98 10 -4 10 C-4.33 7.36 -4.66 4.72 -5 2 C-3.35 2 -1.7 2 0 2 C0 1.34 0 0.68 0 0 Z " fill="#86A8C4" transform="translate(681,345)"/>
<path d="M0 0 C0.66 0 1.32 0 2 0 C6 4.47058824 6 4.47058824 6 7 C3.04335481 8.4783226 0.25770263 8.06032783 -3 8 C-3 4.40142046 -2.04169485 2.90548882 0 0 Z " fill="#EDF2F5" transform="translate(678,356)"/>
<path d="M0 0 C2.71479491 4.07219236 3.7922128 8.33809925 5.1875 13 C5.47302734 13.91523438 5.75855469 14.83046875 6.05273438 15.7734375 C6.31763672 16.65257812 6.58253906 17.53171875 6.85546875 18.4375 C7.09934326 19.24058594 7.34321777 20.04367187 7.59448242 20.87109375 C8 23 8 23 7 26 C5.62811887 22.4231983 4.28063896 18.83768336 2.9375 15.25 C2.54755859 14.23421875 2.15761719 13.2184375 1.75585938 12.171875 C1.39169922 11.1921875 1.02753906 10.2125 0.65234375 9.203125 C0.14175415 7.85202637 0.14175415 7.85202637 -0.37915039 6.47363281 C-1.03794154 3.84883063 -0.90567926 2.51435034 0 0 Z " fill="#43475A" transform="translate(824,324)"/>
<path d="M0 0 C0.66 0 1.32 0 2 0 C5.42857143 8.42857143 5.42857143 8.42857143 5 13 C4.34 13 3.68 13 3 13 C2.29819469 11.5903653 1.61406042 10.17192359 0.9375 8.75 C0.55464844 7.96109375 0.17179688 7.1721875 -0.22265625 6.359375 C-1.08564091 3.74006478 -0.93045933 2.55144824 0 0 Z " fill="#1B1C33" transform="translate(819,313)"/>
<path d="M0 0 C1.8871875 0.061875 1.8871875 0.061875 3.8125 0.125 C4.1425 1.445 4.4725 2.765 4.8125 4.125 C4.05324219 4.10179687 3.29398438 4.07859375 2.51171875 4.0546875 C1.02091797 4.02761719 1.02091797 4.02761719 -0.5 4 C-1.48613281 3.97679687 -2.47226562 3.95359375 -3.48828125 3.9296875 C-6.41156527 3.91817361 -6.41156527 3.91817361 -9.1875 6.125 C-7.20938974 1.56013016 -5.01716504 -0.16449721 0 0 Z " fill="#D8E1E9" transform="translate(678.1875,341.875)"/>
<path d="M0 0 C0.66 0.33 1.32 0.66 2 1 C0.68 2.65 -0.64 4.3 -2 6 C-1.67 6.66 -1.34 7.32 -1 8 C-3.64 8.33 -6.28 8.66 -9 9 C-6.31941902 5.42589203 -3.57410797 2.68058098 0 0 Z " fill="#0F3962" transform="translate(545,680)"/>
<path d="M0 0 C0.45375 0.495 0.9075 0.99 1.375 1.5 C2.87635519 3.22609337 2.87635519 3.22609337 5 3 C5.66 2.34 6.32 1.68 7 1 C7.33 1.99 7.66 2.98 8 4 C5.03 6.475 5.03 6.475 2 9 C1.34 8.34 0.68 7.68 0 7 C0.66 7 1.32 7 2 7 C1.2265625 5.824375 1.2265625 5.824375 0.4375 4.625 C-0.036875 3.75875 -0.51125 2.8925 -1 2 C-0.67 1.34 -0.34 0.68 0 0 Z " fill="#366F9C" transform="translate(682,356)"/>
<path d="M0 0 C0.66 0.33 1.32 0.66 2 1 C0.89966185 2.60679516 -0.20542664 4.21033793 -1.3125 5.8125 C-1.92738281 6.70582031 -2.54226563 7.59914063 -3.17578125 8.51953125 C-4.67715037 10.56100746 -6.14785401 12.28462787 -8 14 C-7.65015815 8.40253042 -3.85992893 3.85992893 0 0 Z " fill="#1C6199" transform="translate(617,347)"/>
<path d="M0 0 C-3.27301919 2.96909598 -5.38065762 3.34354794 -9.75 3.1875 C-11.22726562 3.14689453 -11.22726562 3.14689453 -12.734375 3.10546875 C-13.85585938 3.05326172 -13.85585938 3.05326172 -15 3 C-14.67 2.34 -14.34 1.68 -14 1 C-11.97511372 0.71073053 -9.94755984 0.42727846 -7.91015625 0.24609375 C-1.80257511 -0.54077253 -1.80257511 -0.54077253 0 0 Z " fill="#15A5E0" transform="translate(550,687)"/>
<path d="M0 0 C0 3.86817267 -1.08530516 4.54640451 -3.75 7.25 C-4.79414062 8.34054687 -4.79414062 8.34054687 -5.859375 9.453125 C-6.56578125 9.96359375 -7.2721875 10.4740625 -8 11 C-9.32 10.67 -10.64 10.34 -12 10 C-8.04 6.7 -4.08 3.4 0 0 Z " fill="#111337" transform="translate(602,507)"/>
<path d="M0 0 C0.33 0.66 0.66 1.32 1 2 C-0.21484375 4.8203125 -0.21484375 4.8203125 -1.9375 8.125 C-2.50339844 9.22070312 -3.06929687 10.31640625 -3.65234375 11.4453125 C-4.09707031 12.28835938 -4.54179688 13.13140625 -5 14 C-5.99 13.34 -6.98 12.68 -8 12 C-5.36 8.04 -2.72 4.08 0 0 Z " fill="#384057" transform="translate(643,457)"/>
<path d="M0 0 C2.31 0 4.62 0 7 0 C7 0.66 7 1.32 7 2 C5.35 2 3.7 2 2 2 C1.67 3.32 1.34 4.64 1 6 C0.34 5.67 -0.32 5.34 -1 5 C-0.67 3.35 -0.34 1.7 0 0 Z " fill="#1E6090" transform="translate(674,345)"/>
<path d="M0 0 C0.66 0 1.32 0 2 0 C0.25 5.75 0.25 5.75 -2 8 C-2.99 8 -3.98 8 -5 8 C-3.63055898 5.05043472 -2.12169591 2.47531189 0 0 Z " fill="#1A203C" transform="translate(635,470)"/>
<path d="M0 0 C0.99 0.33 1.98 0.66 3 1 C3 3.97 3 6.94 3 10 C2.01 9.67 1.02 9.34 0 9 C0 6.03 0 3.06 0 0 Z " fill="#2D6E96" transform="translate(530,392)"/>
<path d="M0 0 C2 3 2 3 1.7578125 5.26171875 C1.54898438 6.06222656 1.34015625 6.86273438 1.125 7.6875 C0.92132812 8.49574219 0.71765625 9.30398438 0.5078125 10.13671875 C0.25644531 11.05904297 0.25644531 11.05904297 0 12 C-0.66 11.67 -1.32 11.34 -2 11 C-2.28571429 3.57142857 -2.28571429 3.57142857 0 0 Z " fill="#2E638D" transform="translate(667,345)"/>
<path d="M0 0 C0.33 0 0.66 0 1 0 C1 3.63 1 7.26 1 11 C0.01 10.34 -0.98 9.68 -2 9 C-1.41196203 5.97580475 -0.77321882 2.98241547 0 0 Z " fill="#080D2F" transform="translate(182,403)"/>
<path d="M0 0 C0.66 0 1.32 0 2 0 C1.01 2.97 0.02 5.94 -1 9 C-1.66 8.67 -2.32 8.34 -3 8 C-1.125 2.25 -1.125 2.25 0 0 Z " fill="#1E3B5E" transform="translate(639,555)"/>
<path d="M0 0 C0.66 1.32 1.32 2.64 2 4 C0.625 7.25 0.625 7.25 -1 10 C-1.66 10 -2.32 10 -3 10 C-2.01 6.7 -1.02 3.4 0 0 Z " fill="#2B486A" transform="translate(655,515)"/>
<path d="M0 0 C1.9375 1.125 1.9375 1.125 4 3 C4.75 6.1875 4.75 6.1875 5 9 C0.57142857 3.85714286 0.57142857 3.85714286 0 0 Z " fill="#9CE8EA" transform="translate(223,528)"/>
<path d="M0 0 C0.66 0 1.32 0 2 0 C1.67 1.98 1.34 3.96 1 6 C0.34 6 -0.32 6 -1 6 C-1 5.34 -1 4.68 -1 4 C-1.99 4.33 -2.98 4.66 -4 5 C-4 4.34 -4 3.68 -4 3 C-3.01 3 -2.02 3 -1 3 C-0.67 2.01 -0.34 1.02 0 0 Z " fill="#16598D" transform="translate(681,352)"/>
<path d="M0 0 C0.598125 0.20625 1.19625 0.4125 1.8125 0.625 C-3.9375 4.5 -3.9375 4.5 -6.1875 5.625 C-5.875 3.75 -5.875 3.75 -5.1875 1.625 C-2.1875 -0.375 -2.1875 -0.375 0 0 Z " fill="#0E4B83" transform="translate(674.1875,341.375)"/>
</svg>
